<svg width="12" height="12" viewBox="0 0 12 12" fill="none" xmlns="http://www.w3.org/2000/svg">
<path fill-rule="evenodd" clip-rule="evenodd" d="M6 12C9.31371 12 12 9.31371 12 6C12 2.68629 9.31371 0 6 0C2.68629 0 0 2.68629 0 6C0 9.31371 2.68629 12 6 12ZM3.40106 3.25359C3.79159 2.86306 4.42475 2.86306 4.81528 3.25359L6.01883 4.45714L7.22238 3.25359C7.61291 2.86306 8.24607 2.86306 8.6366 3.25359C9.02712 3.64411 9.02712 4.27728 8.6366 4.6678L7.43304 5.87135L8.6366 7.07491C9.02712 7.46543 9.02712 8.0986 8.6366 8.48912C8.24607 8.87964 7.61291 8.87964 7.22238 8.48912L6.01883 7.28557L4.81528 8.48912C4.42475 8.87964 3.79159 8.87964 3.40106 8.48912C3.01054 8.0986 3.01054 7.46543 3.40106 7.07491L4.60462 5.87135L3.40106 4.6678C3.01054 4.27728 3.01054 3.64411 3.40106 3.25359Z" fill="#525577"/>
</svg>
