<svg width="12" height="12" viewBox="0 0 12 12" fill="none" xmlns="http://www.w3.org/2000/svg">
<path fill-rule="evenodd" clip-rule="evenodd" d="M12 6C12 9.31371 9.31371 12 6 12C2.68629 12 0 9.31371 0 6C0 2.68629 2.68629 0 6 0C9.31371 0 12 2.68629 12 6ZM9.65221 6.00001C9.65221 8.01707 8.01707 9.65221 6.00001 9.65221C5.37082 9.65221 4.77878 9.4931 4.26195 9.21293L9.21292 4.26194C9.4931 4.77878 9.65221 5.37081 9.65221 6.00001ZM2.83053 7.81592L7.81591 2.83053C7.28103 2.52342 6.66103 2.34781 6.00001 2.34781C3.98296 2.34781 2.34781 3.98296 2.34781 6.00001C2.34781 6.66103 2.52342 7.28104 2.83053 7.81592Z" fill="#ADAEB6"/>
</svg>
