<svg width="12" height="12" viewBox="0 0 12 12" fill="none" xmlns="http://www.w3.org/2000/svg">
  <path d="M9.96461 3.87118C9.61452 3.2192 9.10905 2.66362 8.49296 2.25365C7.87687 1.84368 7.16918 1.59198 6.43257 1.52084C5.69597 1.4497 4.95319 1.56132 4.27003 1.84582C3.58688 2.13031 2.98442 2.5789 2.51604 3.15184C2.04766 3.72478 1.7278 4.40439 1.58481 5.13047C1.44181 5.85656 1.48009 6.6067 1.69626 7.31445C1.91242 8.02221 2.29979 8.66573 2.82407 9.18802C3.34834 9.7103 3.99333 10.0952 4.7019 10.3087L5.1124 8.94617C4.6279 8.8002 4.18687 8.53699 3.82839 8.17987C3.46991 7.82275 3.20503 7.38273 3.05723 6.89879C2.90942 6.41484 2.88325 5.90192 2.98102 5.40544C3.0788 4.90897 3.2975 4.44427 3.61777 4.05251C3.93804 3.66075 4.34998 3.35402 4.8171 3.15949C5.28422 2.96496 5.79211 2.88864 6.29578 2.93728C6.79945 2.98592 7.28335 3.15803 7.70461 3.43835C8.12588 3.71868 8.47151 4.09857 8.71088 4.54438L9.96461 3.87118Z" fill="#525577">
    <animateTransform attributeType="xml" attributeName="transform" type="rotate" from="0 6 6" to="360 6 6" dur="0.6s" repeatCount="indefinite" />
  </path>
</svg>
